<svg version="1.1" xmlns="http://www.w3.org/2000/svg" xmlns:xlink="http://www.w3.org/1999/xlink" width="700" height="700" viewBox="-170,-42.5,700,700"><g data-paper-data="{&quot;layerid&quot;:&quot;document&quot;,&quot;name&quot;:&quot;document&quot;,&quot;stage&quot;:false,&quot;vgx&quot;:{&quot;signed&quot;:true,&quot;selected&quot;:false,&quot;unsigned&quot;:false,&quot;contained&quot;:false,&quot;visible&quot;:true,&quot;id&quot;:&quot;f5gspcx7r_1663278660356112&quot;,&quot;changeset&quot;:&quot;v0pparihy_1663278660356113&quot;,&quot;staticid&quot;:&quot;7w8as2dmx_1663278660356114&quot;,&quot;name&quot;:&quot;document&quot;,&quot;altname&quot;:&quot;&quot;,&quot;owner&quot;:null,&quot;layer&quot;:true,&quot;class&quot;:&quot;item&quot;,&quot;type&quot;:&quot;default&quot;,&quot;ui&quot;:false,&quot;actor&quot;:false,&quot;props&quot;:{},&quot;locked&quot;:false,&quot;strokeScaling&quot;:true,&quot;container&quot;:false,&quot;layerid&quot;:&quot;document&quot;}}" id="document" fill-opacity="0" fill="#ffffff" fill-rule="nonzero" stroke="#000000" stroke-width="0" stroke-linecap="butt" stroke-linejoin="miter" stroke-miterlimit="10" stroke-dasharray="" stroke-dashoffset="0" font-family="none" font-weight="none" font-size="none" text-anchor="none" style="mix-blend-mode: normal"><rect x="-170" y="-30.35714" transform="scale(1,1.4)" width="700" height="500" data-paper-data="{&quot;vgx&quot;:{&quot;signed&quot;:true,&quot;selected&quot;:false,&quot;unsigned&quot;:false,&quot;contained&quot;:false,&quot;visible&quot;:true,&quot;id&quot;:&quot;6uycmg58i_1663278660638234&quot;,&quot;changeset&quot;:&quot;pzwposmim_1663278660638235&quot;,&quot;staticid&quot;:&quot;089vehcr8_1663278660638236&quot;,&quot;name&quot;:&quot;Shape&quot;,&quot;altname&quot;:&quot;&quot;,&quot;owner&quot;:null,&quot;layer&quot;:false,&quot;class&quot;:&quot;document&quot;,&quot;type&quot;:&quot;document&quot;,&quot;ui&quot;:false,&quot;actor&quot;:true,&quot;props&quot;:{},&quot;locked&quot;:false,&quot;strokeScaling&quot;:true,&quot;container&quot;:false},&quot;v_data&quot;:null}" id="Shape 1" vector-effect="non-scaling-stroke"/></g><g fill="none" fill-rule="nonzero" stroke="#ffffff" stroke-width="none" stroke-linecap="round" stroke-linejoin="round" stroke-miterlimit="10" stroke-dasharray="" stroke-dashoffset="0" font-family="none" font-weight="none" font-size="none" text-anchor="none" style="mix-blend-mode: normal"><g data-paper-data="{&quot;layerid&quot;:&quot;stage&quot;,&quot;name&quot;:&quot;stage&quot;,&quot;stage&quot;:false,&quot;vgx&quot;:{&quot;signed&quot;:true,&quot;selected&quot;:false,&quot;unsigned&quot;:false,&quot;contained&quot;:false,&quot;visible&quot;:true,&quot;id&quot;:&quot;pzwuisifn_1663278660356115&quot;,&quot;changeset&quot;:&quot;l842jjrdf_1663278660356116&quot;,&quot;staticid&quot;:&quot;lrfjazydz_1663278660356117&quot;,&quot;name&quot;:&quot;stage&quot;,&quot;altname&quot;:&quot;&quot;,&quot;owner&quot;:null,&quot;layer&quot;:true,&quot;class&quot;:&quot;item&quot;,&quot;type&quot;:&quot;default&quot;,&quot;ui&quot;:false,&quot;actor&quot;:false,&quot;props&quot;:{},&quot;locked&quot;:false,&quot;strokeScaling&quot;:true,&quot;container&quot;:false,&quot;layerid&quot;:&quot;stage&quot;}}" id="stage"><g id="layer1 1"><path d="M-129.47153,491.1757v-363.85653h623.70723v363.85653z" id="Path 1" fill-opacity="0.71" fill="#000000" stroke-width="3"/><path d="M8.46123,324.29272c6.04809,-18.31624 11.89723,-36.64656 16.39916,-55.40605c4.61419,-19.22728 8.29701,-39.38026 8.58854,-59.20184c0.09287,-6.31414 0.4601,-16.97197 -4.29313,-22.02619c-9.83868,-10.46173 -15.40637,-10.06207 -29.8811,-8.46221c-4.23535,0.46812 -8.49599,1.56862 -12.28639,3.49202c-5.73661,2.91099 -11.26689,6.44129 -15.93942,10.83092c-40.77766,38.30868 -47.34912,114.91124 -46.64528,167.88659c0.2724,20.50269 0.04602,50.18493 15.50872,66.41146c15.28512,16.04018 38.847,14.64828 58.03391,5.9764c40.36393,-18.24324 61.88712,-57.34279 79.37335,-95.48581c7.99489,-17.43939 14.38205,-35.66626 20.87147,-53.69405c1.76143,-4.89329 4.09705,-11.52274 5.90549,-16.72196c1.42685,-4.10217 0.19219,-14.06643 4.2172,-12.32783c0.75998,0.32828 8.64137,12.53493 10.30406,16.29425c7.45623,16.8584 10.18696,35.32984 11.7603,53.5409c0.32211,3.72832 0.65631,8.37153 0.88443,12.21219c0.2138,3.59966 -3.09238,10.32594 0.52775,10.80497c10.35887,1.37075 23.85412,-12.13901 29.21702,-16.89819c13.57811,-12.04959 22.00009,-28.84948 28.66024,-45.27017c2.64755,-6.52758 4.88048,-13.23945 6.87375,-19.98834c0.81734,-2.76739 1.59068,-5.54732 2.3623,-8.32747c0.43988,-1.58489 0.79224,-6.34083 1.2721,-4.76728c14.48961,47.51396 -4.69803,104.87038 15.42242,150.14439c5.80303,4.78729 12.59702,11.90032 20.38012,14.51117c17.81989,5.97772 36.49382,0.98972 51.47915,-9.44054c15.85538,-11.03586 34.59478,-36.13604 14.79625,-52.14745c-9.96725,-8.06069 -26.04223,-5.05801 -35.61888,2.00359c-15.85114,11.68825 -22.33215,34.11744 -17.11702,52.73903c3.50946,12.53115 14.26828,23.00577 28.24135,23.05807c1.53253,0.00573 13.99268,-0.96329 18.00705,-2.33096c46.4051,-15.80996 60.9823,-61.97286 79.76844,-101.87418c7.97632,-16.94153 17.19549,-31.51921 35.09535,-39.38242c4.89679,-2.15111 12.37964,-2.75093 29.77898,-1.31699" id="Path 1" fill-opacity="0" fill="#000000" stroke-width="4"/></g></g></g></svg>